<svg width="146" height="24" viewBox="0 0 146 24" fill="none" xmlns="http://www.w3.org/2000/svg">
<path fill-rule="evenodd" clip-rule="evenodd" d="M118.704 23.8704C119.904 23.8704 120.977 23.7298 121.924 23.4486C122.871 23.1673 123.667 22.7758 124.311 22.2739C124.955 21.7721 125.489 21.1572 125.913 20.4293C126.337 19.7013 126.642 18.9072 126.829 18.0469C127.017 17.1866 127.11 16.2436 127.11 15.2179V0.394345H123.328V2.13148H123.262C122.579 1.48074 121.795 0.984418 120.909 0.642506C120.022 0.300595 119.1 0.129639 118.142 0.129639C116.634 0.129639 115.28 0.488095 114.08 1.20501C112.879 1.92192 111.946 2.91732 111.28 4.19122C110.614 5.46512 110.281 6.89618 110.281 8.48442C110.281 10.0947 110.631 11.523 111.33 12.7693C112.029 14.0157 112.99 14.9725 114.212 15.6397C115.434 16.307 116.81 16.6407 118.341 16.6407C120.388 16.6407 122.056 15.9679 123.345 14.6223H123.411V16.376C123.411 17.5451 122.981 18.5157 122.123 19.2877C121.264 20.0598 120.053 20.4458 118.489 20.4458C117.421 20.4458 116.483 20.3135 115.673 20.0488C114.864 19.784 113.931 19.3704 112.874 18.8079L111.982 22.1499C112.907 22.7013 113.947 23.126 115.104 23.4238C116.26 23.7215 117.46 23.8704 118.704 23.8704ZM40.0141 8.68295V16.9385H36.2321V8.31898C36.2321 5.16457 35.1366 3.58736 32.9456 3.58736C31.7895 3.58736 30.8399 4.04232 30.0967 4.95225C29.3535 5.86218 28.9819 7.10574 28.9819 8.68295V16.9219H25.2V0.394345H28.9819V2.67743H29.0315C29.7031 1.86126 30.4876 1.23534 31.3849 0.799675C32.2822 0.364014 33.2154 0.146183 34.1843 0.146183C36.4854 0.146183 38.1259 1.06162 39.1058 2.89251H39.1719C39.8655 1.99912 40.7188 1.31806 41.7317 0.849308C42.7447 0.380558 43.8622 0.146183 45.0843 0.146183C46.945 0.146183 48.3764 0.744528 49.3783 1.94122C50.3802 3.13791 50.8812 4.94398 50.8812 7.35942V16.9385H47.0992V8.31898C47.0992 5.16457 46.0202 3.58736 43.8622 3.58736C42.7612 3.58736 41.8446 4.04232 41.1124 4.95225C40.3802 5.86218 40.0141 7.10574 40.0141 8.68295ZM66.367 14.705C65.1118 16.3594 63.3612 17.1866 61.1151 17.1866C59.9811 17.1866 58.9214 16.9853 57.936 16.5828C56.9505 16.1802 56.1055 15.6149 55.4009 14.887C54.6962 14.159 54.1402 13.2657 53.7328 12.2068C53.3254 11.148 53.1218 9.98993 53.1218 8.73258C53.1218 7.50832 53.3254 6.36126 53.7328 5.2914C54.1402 4.22155 54.6962 3.31162 55.4009 2.56162C56.1055 1.81162 56.9478 1.22155 57.9277 0.791403C58.9076 0.361256 59.9591 0.146183 61.0821 0.146183C63.2291 0.146183 64.9302 0.890668 66.1853 2.37964H66.2514V0.394345H70.0334V16.9219H66.4165V14.705H66.367ZM61.7097 13.7454C60.3114 13.7454 59.1718 13.2795 58.291 12.3475C57.4102 11.4155 56.9698 10.216 56.9698 8.74912C56.9698 7.19398 57.424 5.9449 58.3323 5.00188C59.2407 4.05887 60.372 3.58736 61.7262 3.58736C63.0694 3.58736 64.1842 4.08093 65.0705 5.06806C65.9569 6.05519 66.4 7.28221 66.4 8.74912C66.4 10.216 65.9459 11.4155 65.0375 12.3475C64.1292 13.2795 63.0199 13.7454 61.7097 13.7454ZM88.8222 7.19398V16.9385H85.0402V8.17008C85.0402 7.30979 84.9632 6.58184 84.809 5.98626C84.6549 5.39067 84.4182 4.91916 84.0989 4.57173C83.7796 4.22431 83.408 3.97339 82.9841 3.81898C82.5602 3.66457 82.051 3.58736 81.4564 3.58736C80.1572 3.58736 79.1195 4.02854 78.3433 4.91089C77.5671 5.79324 77.179 7.02854 77.179 8.61677V16.9219H73.397V0.394345H77.179V2.66089H77.2285C77.9222 1.84471 78.7479 1.22155 79.7058 0.791403C80.6637 0.361256 81.6821 0.146183 82.7611 0.146183C84.6549 0.146183 86.1385 0.722469 87.212 1.87504C88.2855 3.02762 88.8222 4.80059 88.8222 7.19398ZM99.0397 17.1866C101.286 17.1866 103.036 16.3594 104.292 14.705H104.341V16.9219H107.958V0.394345H104.176V2.37964H104.11C102.855 0.890668 101.154 0.146183 99.0067 0.146183C97.8836 0.146183 96.8321 0.361256 95.8522 0.791403C94.8723 1.22155 94.0301 1.81162 93.3254 2.56162C92.6208 3.31162 92.0647 4.22155 91.6574 5.2914C91.25 6.36126 91.0463 7.50832 91.0463 8.73258C91.0463 9.98993 91.25 11.148 91.6574 12.2068C92.0647 13.2657 92.6208 14.159 93.3254 14.887C94.0301 15.6149 94.8751 16.1802 95.8605 16.5828C96.8459 16.9853 97.9056 17.1866 99.0397 17.1866ZM96.2156 12.3475C97.0964 13.2795 98.2359 13.7454 99.6342 13.7454C100.944 13.7454 102.054 13.2795 102.962 12.3475C103.87 11.4155 104.325 10.216 104.325 8.74912C104.325 7.28221 103.881 6.05519 102.995 5.06806C102.109 4.08093 100.994 3.58736 99.6507 3.58736C98.2965 3.58736 97.1652 4.05887 96.2569 5.00188C95.3485 5.9449 94.8944 7.19398 94.8944 8.74912C94.8944 10.216 95.3348 11.4155 96.2156 12.3475ZM115.459 11.8511C116.345 12.717 117.471 13.1499 118.836 13.1499C120.212 13.1499 121.333 12.6949 122.197 11.785C123.061 10.875 123.493 9.71971 123.493 8.31898C123.493 6.92927 123.05 5.79876 122.164 4.92743C121.277 4.05611 120.168 3.62045 118.836 3.62045C117.438 3.62045 116.304 4.06162 115.434 4.94398C114.564 5.82633 114.129 6.96787 114.129 8.36861C114.129 9.82449 114.572 10.9853 115.459 11.8511ZM137.922 17.1866C139.464 17.1866 140.821 16.9054 141.993 16.3429C143.166 15.7804 144.126 15.0193 144.875 14.0598L142.233 11.7932C141.198 13.0947 139.827 13.7454 138.12 13.7454C136.909 13.7454 135.882 13.4091 135.04 12.7363C134.198 12.0635 133.656 11.1425 133.413 9.97339H145.437C145.503 9.57633 145.536 9.07449 145.536 8.46787C145.536 6.86861 145.211 5.4403 144.561 4.18295C143.912 2.92559 142.976 1.93846 141.754 1.22155C140.532 0.504639 139.122 0.146183 137.526 0.146183C136.392 0.146183 135.329 0.352984 134.338 0.766587C133.347 1.18019 132.494 1.75648 131.778 2.49545C131.063 3.23442 130.501 4.13332 130.094 5.19214C129.687 6.25096 129.483 7.40354 129.483 8.64986C129.483 10.3374 129.852 11.8346 130.589 13.1416C131.327 14.4486 132.334 15.4495 133.612 16.1443C134.889 16.8392 136.326 17.1866 137.922 17.1866ZM133.48 6.91273H141.737C141.495 5.88699 141.03 5.07633 140.342 4.48074C139.653 3.88515 138.781 3.58736 137.724 3.58736C136.678 3.58736 135.775 3.87688 135.015 4.45593C134.256 5.03497 133.744 5.8539 133.48 6.91273Z" fill="white"/>
<path d="M2.78613 10.4158C4.32436 10.416 5.57114 11.6945 5.57129 13.2722C5.57129 14.85 4.32445 16.1294 2.78613 16.1296C1.24763 16.1296 0 14.8502 0 13.2722C0.000146976 11.6944 1.24772 10.4158 2.78613 10.4158ZM2.78613 0.129639C4.32445 0.129871 5.57129 1.40925 5.57129 2.98706C5.57114 4.56475 4.32436 5.84327 2.78613 5.84351C1.24772 5.84351 0.000146976 4.56489 0 2.98706C0 1.4091 1.24763 0.129639 2.78613 0.129639ZM12.8145 0.129639C14.3529 0.129732 15.5996 1.40916 15.5996 2.98706C15.5995 4.56483 14.3528 5.84341 12.8145 5.84351C11.276 5.84351 10.0285 4.56489 10.0283 2.98706C10.0283 1.4091 11.2759 0.129639 12.8145 0.129639Z" fill="#F3603C"/>
<ellipse opacity="0.5" cx="12.8143" cy="13.3868" rx="2.78571" ry="2.85714" fill="#F3603C"/>
</svg>
